<?xml version="1.0" encoding="UTF-8" standalone="no"?>
<!-- Created with Inkscape (http://www.inkscape.org/) -->

<svg
   width="67.733322mm"
   height="67.733345mm"
   viewBox="0 0 67.733322 67.733345"
   version="1.1"
   id="svg1"
   xmlns:xlink="http://www.w3.org/1999/xlink"
   xmlns="http://www.w3.org/2000/svg"
   xmlns:svg="http://www.w3.org/2000/svg">
  <defs
     id="defs1">
    <linearGradient
       id="linearGradient56">
      <stop
         style="stop-color:#bb0000;stop-opacity:1;"
         offset="0"
         id="stop56" />
      <stop
         style="stop-color:#611818;stop-opacity:1;"
         offset="1"
         id="stop57" />
    </linearGradient>
    <linearGradient
       id="swatch42">
      <stop
         style="stop-color:#000000;stop-opacity:1;"
         offset="0"
         id="stop42" />
    </linearGradient>
    <radialGradient
       xlink:href="#linearGradient56"
       id="radialGradient57"
       cx="32.876167"
       cy="78.149307"
       fx="32.876167"
       fy="78.149307"
       r="33.866665"
       gradientUnits="userSpaceOnUse"
       gradientTransform="matrix(1.9005629,-1.6220491e-7,0,2.1529043,-25.678193,-95.336285)" />
  </defs>
  <g
     id="layer1"
     transform="translate(-28.947303,-13.597355)">
    <rect
       style="fill:url(#radialGradient57);fill-opacity:1;stroke-width:0.817828;stroke-linejoin:round;stroke-dashoffset:3.77953"
       id="rect1"
       width="67.73333"
       height="67.73333"
       x="28.947304"
       y="13.597353" />
    <path
       id="rect57"
       style="fill:#ffffff;fill-opacity:1;stroke:none;stroke-width:1.286;stroke-linecap:round;stroke-linejoin:round;stroke-dasharray:none;stroke-dashoffset:3.77953;stroke-opacity:1"
       d="M 46.68759,49.111731 V 69.317216 H 79.381201 V 49.111731 Z m 10.540958,5.052922 c 0.562295,0 1.104425,0.07619 1.616956,0.232543 0.512672,0.151617 0.995978,0.383321 1.441255,0.687297 a 0.78299763,0.78299763 0 0 1 0.342615,0.646989 v 1.172538 a 0.78299763,0.78299763 0 0 1 -1.317749,0.573092 C 58.998172,57.185167 58.6809,56.98034 58.35096,56.846659 a 0.78299763,0.78299763 0 0 1 -0.0026,0 c -0.326765,-0.133597 -0.670023,-0.202055 -1.053165,-0.202055 -0.780248,0 -1.226989,0.201875 -1.567346,0.594796 a 0.78299763,0.78299763 0 0 1 -0.0026,0.0021 c -0.338354,0.388111 -0.556555,1.009311 -0.556555,1.976624 0,0.96215 0.219152,1.582797 0.559139,1.976107 v 0.0026 c 0.339412,0.388185 0.787507,0.587045 1.567346,0.587045 0.383142,0 0.726401,-0.06592 1.053165,-0.199471 a 0.78299763,0.78299763 0 0 1 0.0026,0 c 0.329938,-0.133681 0.647213,-0.338508 0.960665,-0.630453 a 0.78299763,0.78299763 0 0 1 1.317749,0.573092 v 1.163236 a 0.78299763,0.78299763 0 0 1 -0.342615,0.646472 c -0.451817,0.306885 -0.939261,0.541652 -1.453141,0.697116 -0.511355,0.156046 -1.049054,0.230476 -1.60507,0.230476 -1.404514,0 -2.640936,-0.461343 -3.512447,-1.386478 -0.869956,-0.927961 -1.286743,-2.199356 -1.286743,-3.659725 0,-1.463645 0.415172,-2.735034 1.286743,-3.660242 0.871068,-0.929142 2.107164,-1.393196 3.512447,-1.393196 z m 5.215186,0.149344 h 1.122412 a 0.78299763,0.78299763 0 0 1 0.761194,0.594796 l 0.967899,3.892786 0.965316,-3.892786 a 0.78299763,0.78299763 0 0 1 0.761194,-0.594796 h 1.25057 a 0.78299763,0.78299763 0 0 1 0.75861,0.594796 l 0.970483,3.89537 0.965316,-3.89537 a 0.78299763,0.78299763 0 0 1 0.75861,-0.594796 h 1.129647 a 0.78299763,0.78299763 0 0 1 0.761193,0.973068 l -2.06654,8.225854 a 0.78299763,0.78299763 0 0 1 -0.75861,0.592212 H 69.39008 a 0.78299763,0.78299763 0 0 1 -0.760677,-0.596863 l -0.977718,-4.024044 -0.989087,4.026111 a 0.78299763,0.78299763 0 0 1 -0.75861,0.594796 H 64.50304 a 0.78299763,0.78299763 0 0 1 -0.75861,-0.592212 l -2.06189,-8.225854 a 0.78299763,0.78299763 0 0 1 0.761194,-0.973068 z" />
    <path
       id="path40"
       style="fill:#ffffff;stroke:#ffffff;stroke-width:0.610764;stroke-linecap:round;stroke-linejoin:round;stroke-dasharray:none;stroke-dashoffset:3.77953;stroke-opacity:1"
       d="m 41.859731,47.594467 v 16.706439 a 6.5336442,6.5336442 0 0 0 6.533351,6.533352 H 77.675758 A 6.5336442,6.5336442 0 0 0 84.20911,64.300906 V 47.594467 Z m 7.735867,4.704004 H 75.693659 V 66.357494 H 49.595598 Z" />
    <path
       id="path38"
       style="fill:#ffffff;stroke:#ffffff;stroke-width:0.610764;stroke-linecap:round;stroke-linejoin:round;stroke-dasharray:none;stroke-dashoffset:3.77953;stroke-opacity:1"
       d="m 47.847718,39.660451 a 5.9879646,5.9879646 0 0 1 -5.987959,5.987964 h 5.909054 l 2.853844,-5.987964 z m 7.573008,0 -2.853845,5.987964 h 4.79807 l 2.853843,-5.987964 z m 9.596137,0 -2.853844,5.987964 h 4.798069 l 2.853844,-5.987964 z m 9.596137,0 -2.853843,5.987964 h 4.798068 l 2.853845,-5.987964 z m 9.596138,0 -2.853844,5.987964 h 2.853844 z" />
    <path
       id="path38-2"
       style="fill:#ffffff;stroke:#ffffff;stroke-width:0.610764;stroke-linejoin:round;stroke-dasharray:none;stroke-dashoffset:3.77953;stroke-opacity:1"
       d="m 81.216421,22.915509 -2.756633,0.738548 4.306331,5.045519 z m -7.39121,1.980829 -4.634577,1.241658 4.306331,5.045507 4.634577,-1.242281 z m -9.269154,2.483304 -4.634578,1.242281 4.306331,5.044884 4.634578,-1.241646 z m -9.269154,2.483939 -4.634578,1.241646 4.306331,5.045519 4.634578,-1.241646 z m -9.269155,2.483305 -5.707688,1.529498 0.002,0.0086 a 5.9879646,5.9879646 0 0 1 1.547805,-0.212094 5.9879646,5.9879646 0 0 1 5.782806,4.438261 l 2.681515,-0.718355 z" />
    <circle
       style="fill:#ffffff;fill-opacity:1;stroke:none;stroke-width:0.0932513;stroke-linejoin:round;stroke-dasharray:none;stroke-dashoffset:3.77953;stroke-opacity:1"
       id="path41"
       cx="41.85976"
       cy="39.66045"
       r="2.736881" />
  </g>
</svg>
